Coordinates
version=1
nRows=26
nColumns=24
inDegrees=yes

Units are S.I. units (second, meters, Newtons, ...)
Angles are in degrees.

endheader
time	pelvis_tilt	pelvis_list	pelvis_rotation	pelvis_tx	pelvis_ty	pelvis_tz	hip_flexion_r	hip_adduction_r	hip_rotation_r	knee_angle_r	ankle_angle_r	subtalar_angle_r	mtp_angle_r	hip_flexion_l	hip_adduction_l	hip_rotation_l	knee_angle_l	ankle_angle_l	subtalar_angle_l	mtp_angle_l	lumbar_extension	lumbar_bending	lumbar_rotation
      4.82000000	    -10.53207170	      4.62637517	     -4.28841581	     -1.07407737	     -0.01707398	     -0.67983716	     16.43835113	     -6.96733414	     -3.39520887	    -58.44357706	    -12.77699716	    -12.90379673	     -0.13199131	     26.68267125	      5.39783327	    -12.19561714	    -22.50218984	      1.93896874	    -10.19582255	      1.37985347	      7.29952020	     -4.35236698	      1.52790940
      4.82500000	    -10.47898140	      4.59953248	     -4.23179038	     -1.06900423	     -0.01636241	     -0.68033188	     17.19773498	     -6.98042929	     -3.40975149	    -59.35624628	    -12.57113782	    -13.62908510	     -0.27310976	     26.14848350	      5.51161186	    -12.04157756	    -22.25655049	      2.14597052	    -10.24893747	      1.34823635	      7.21158092	     -4.31120443	      1.33988618
      4.83000000	    -10.61378247	      4.49378717	     -4.14497282	     -1.06412230	     -0.01584368	     -0.68081777	     18.17659196	     -6.86930176	     -3.42463187	    -60.23966688	    -12.34572144	    -14.30377299	     -0.70127205	     25.86077171	      5.53285914	    -11.79773744	    -22.08712835	      2.37706098	    -10.30868948	      1.14975950	      7.29174104	     -4.17947671	      1.11085768
      4.83500000	    -10.65245042	      4.45922630	     -4.04668576	     -1.05916532	     -0.01523832	     -0.68130784	     19.02899801	     -6.86762985	     -3.47040580	    -61.03697057	    -12.03290588	    -14.87173887	     -0.92381522	     25.44262139	      5.63211656	    -11.67225545	    -21.85761681	      2.58448426	    -10.30800432	      1.00163390	      7.28706507	     -4.13296278	      0.85796473
      4.84000000	    -10.70361081	      4.40626175	     -3.95437392	     -1.05419364	     -0.01462438	     -0.68180052	     19.88274547	     -6.84442888	     -3.51679248	    -61.75146098	    -11.72056054	    -15.35891175	     -1.06963347	     25.01710547	      5.71373380	    -11.50078559	    -21.59839854	      2.80484040	    -10.29892770	      0.86401629	      7.30448939	     -4.05991387	      0.63199654
      4.84500000	    -10.76224347	      4.34692215	     -3.86614136	     -1.04925306	     -0.01400465	     -0.68227118	     20.73534761	     -6.80523501	     -3.55201951	    -62.38785053	    -11.37692054	    -15.77061610	     -1.16806070	     24.59200614	      5.78409628	    -11.33066375	    -21.32288402	      3.01805093	    -10.28112481	      0.69800927	      7.32974299	     -3.97705118	      0.41428708
      4.85000000	    -10.73450088	      4.27351638	     -3.79872073	     -1.04427561	     -0.01325013	     -0.68269116	     21.46197561	     -6.74230234	     -3.55957153	    -62.91136354	    -10.99211762	    -16.06501418	     -1.11519316	     24.03809317	      5.83542847	    -11.16690568	    -20.99005589	      3.21672200	    -10.21938359	      0.68942217	      7.26915592	     -3.88206625	      0.23698282
      4.85500000	    -10.72949691	      4.21894760	     -3.71353966	     -1.03932002	     -0.01253068	     -0.68310564	     22.20503841	     -6.70282091	     -3.59297173	    -63.36607624	    -10.58076049	    -16.36222110	     -1.04668960	     23.50755775	      5.90406036	    -11.04370377	    -20.64212995	      3.39054782	    -10.15294474	      0.66720975	      7.23324388	     -3.80998615	      0.03145374
      4.86000000	    -10.72634379	      4.15829188	     -3.63588579	     -1.03436361	     -0.01180653	     -0.68349774	     22.93519392	     -6.65227564	     -3.62946644	    -63.73865768	    -10.13381126	    -16.60512627	     -0.94907649	     22.96996101	      5.95953594	    -10.93477135	    -20.27790440	      3.55316145	    -10.08344738	      0.64737130	      7.20488468	     -3.72968124	     -0.16824132
      4.86500000	    -10.72402245	      4.10674946	     -3.55025412	     -1.02940175	     -0.01108487	     -0.68389924	     23.64817367	     -6.61181522	     -3.66700272	    -64.03080349	     -9.64248852	    -16.78382836	     -0.81273535	     22.42195334	      6.02567036	    -10.83204879	    -19.89019034	      3.70946566	     -9.99482032	      0.62793771	      7.17776441	     -3.65698341	     -0.36063629
      4.87000000	    -10.70945391	      4.05689092	     -3.47045837	     -1.02442512	     -0.01035345	     -0.68427066	     24.32771492	     -6.56799688	     -3.69843173	    -64.23988197	     -9.10526759	    -16.89877334	     -0.63537917	     21.84754518	      6.08898410	    -10.73324680	    -19.47976787	      3.85778110	     -9.89056412	      0.61365220	      7.14575122	     -3.58791826	     -0.54797214
      4.87500000	    -10.64248080	      4.01925316	     -3.38345395	     -1.01944319	     -0.00960072	     -0.68470951	     24.92309226	     -6.55760073	     -3.72246684	    -64.36552295	     -8.45649476	    -16.80184716	     -0.23473439	     21.21535097	      6.17360132	    -10.68722578	    -19.06099420	      4.00619041	     -9.80575108	      0.54917336	      7.05460283	     -3.52466715	     -0.76341772
      4.88000000	    -10.61290101	      3.96053261	     -3.32214926	     -1.01445201	     -0.00884543	     -0.68503039	     25.54615507	     -6.48584445	     -3.74451568	    -64.39723993	     -7.94705747	    -16.93187275	     -0.04203638	     20.59918332	      6.21990903	    -10.56290211	    -18.60860967	      4.14059336	     -9.68483331	      0.55237722	      7.01174706	     -3.43894729	     -0.89848511
      4.88500000	    -10.38842350	      3.89616568	     -3.28139910	     -1.00942804	     -0.00789557	     -0.68543048	     25.90386318	     -6.43682421	     -3.74095978	    -64.28949285	     -7.40382257	    -16.87797398	      0.84728862	     19.74936017	      6.28162707	    -10.48591187	    -18.11411069	      4.26549329	     -9.64660568	      0.47382960	      6.75674279	     -3.34469192	     -1.05245452
      4.89000000	    -10.33605925	      3.83062185	     -3.18171010	     -1.00441155	     -0.00716468	     -0.68583988	     26.44458120	     -6.39503736	     -3.80987401	    -64.15518116	     -6.86302518	    -16.84212998	      1.24468586	     19.11139482	      6.32864786	    -10.41573519	    -17.66195916	      4.40265076	     -9.49188737	      0.49790204	      6.69308987	     -3.25118830	     -1.27925051
      4.89500000	    -10.25093274	      3.77690723	     -3.10730520	     -0.99944852	     -0.00646192	     -0.68618916	     26.94512955	     -6.35433901	     -3.87038425	    -63.96026973	     -6.33098741	    -16.85938453	      1.51813363	     18.43744790	      6.38238258	    -10.31066531	    -17.20728729	      4.54434157	     -9.36990091	      0.53022651	      6.58586916	     -3.17142668	     -1.43074570
      4.90000000	    -10.04873858	      3.68795385	     -3.06043283	     -0.99442371	     -0.00555960	     -0.68651817	     27.25995354	     -6.26702019	     -3.91229024	    -63.60817367	     -5.93716480	    -16.96612600	      2.15476259	     17.60498122	      6.40220911	    -10.22891999	    -16.69688861	      4.60090448	     -9.30995512	      0.55809525	      6.36018798	     -3.05298919	     -1.59246972
      4.90500000	    -10.03873454	      3.62019535	     -2.97830564	     -0.98946066	     -0.00496705	     -0.68686304	     27.80131845	     -6.20351940	     -3.97465194	    -63.26600310	     -5.48779485	    -16.97857087	      2.30991728	     17.01758947	      6.43015704	    -10.11632410	    -16.25057487	      4.71668586	     -9.16633679	      0.58814092	      6.33856266	     -2.94588279	     -1.74978977
      4.91000000	     -9.88985580	      3.52703963	     -2.87749418	     -0.98445892	     -0.00426590	     -0.68726670	     28.13869945	     -6.15426774	     -4.09576933	    -62.81849184	     -5.04122243	    -16.93860666	      2.57198841	     16.26475649	      6.44966789	    -10.01246080	    -15.78143549	      4.86223131	     -9.04911384	      0.62995475	      6.16769468	     -2.82796888	     -1.96915669
      4.91500000	     -9.75662202	      3.44061683	     -2.79791551	     -0.97947220	     -0.00359597	     -0.68761066	     28.47836359	     -6.09074893	     -4.20130014	    -62.28958204	     -4.70568032	    -17.05707558	      2.80257421	     15.52523059	      6.46453217	     -9.90606584	    -15.30209471	      4.97086700	     -8.94203789	      0.66498146	      6.01460504	     -2.70667589	     -2.14672819
      4.92000000	     -9.65506503	      3.35773989	     -2.70119516	     -0.97449674	     -0.00301223	     -0.68796018	     28.83078913	     -6.03989330	     -4.32550005	    -61.69670189	     -4.38251827	    -17.17062369	      2.99744662	     14.83045259	      6.47930387	     -9.80301193	    -14.83951905	      5.08331388	     -8.81075058	      0.70873671	      5.89379722	     -2.59296974	     -2.34246539
      4.92500000	     -9.70344073	      3.33338510	     -2.64661943	     -0.96957242	     -0.00268949	     -0.68824821	     29.37395484	     -6.01194752	     -4.37640694	    -61.09044944	     -4.07012532	    -17.31346492	      3.02359130	     14.32501122	      6.53216905	     -9.80517472	    -14.40164961	      5.16478991	     -8.73825216	      0.71134067	      5.93968962	     -2.51988147	     -2.47838074
      4.93000000	     -9.47923618	      3.19648081	     -2.47843888	     -0.96456712	     -0.00202072	     -0.68866717	     29.49001266	     -5.96250341	     -4.62630983	    -60.29901504	     -3.78090375	    -17.46506330	      3.13363991	     13.48982561	      6.50463730	     -9.62709394	    -13.94232230	      5.31622913	     -8.52353490	      0.78843598	      5.67962391	     -2.36217362	     -2.76644912
      4.93500000	     -9.40864212	      3.14421930	     -2.38412754	     -0.95962429	     -0.00166216	     -0.68897055	     29.82197350	     -5.94785968	     -4.76804253	    -59.51698495	     -3.51877657	    -17.65717920	      3.12860606	     12.83738465	      6.53699364	     -9.52574982	    -13.49021747	      5.46354789	     -8.36874176	      0.85458374	      5.59079549	     -2.27753931	     -2.93060469
      4.94000000	     -9.34020598	      3.07785941	     -2.25621213	     -0.95467643	     -0.00133630	     -0.68932566	     30.11389178	     -5.93961731	     -4.95334941	    -58.65018595	     -3.26010346	    -17.84828184	      3.02438653	     12.19903914	      6.55731585	     -9.43346975	    -13.05895161	      5.60486337	     -8.19402840	      0.92452645	      5.50176008	     -2.17490878	     -3.14860911
      4.94500000	     -9.28450328	      3.02700878	     -2.13415424	     -0.94974131	     -0.00109649	     -0.68965906	     30.40351475	     -5.94581540	     -5.13932319	    -57.72600535	     -3.02627053	    -18.05979516	      2.80798154	     11.57950416	      6.58836210	     -9.34616513	    -12.63463833	      5.75370846	     -8.02040737	      0.99742728	      5.42599869	     -2.08690781	     -3.35018518
